<svg id="Layer_1" data-name="Layer 1" xmlns="http://www.w3.org/2000/svg" viewBox="0 0 638 330"><defs><style>.cls-1{fill:#da0236;}.cls-2{fill:#96011d;}.cls-3{fill:#f0047f;}.cls-4{fill:#e80259;}.cls-5{fill:#fff;}</style></defs><path class="cls-1" d="M273.993,330.88c9.686,1.358,19.355,2.858,29.061,4.046q48.539,5.945,97.1,11.706c9.547,1.147,19.1,2.278,29.22,3.485l-37.3,135.7c-1.337-1.476-2.228-2.343-2.985-3.314Q331.812,409.051,274.61,335.538c-.956-1.229-1.1-3.091-1.617-4.658Z" transform="translate(15.007 -330.88)"/><path class="cls-2" d="M344.993,660.88a26.014,26.014,0,0,1,.44-4.881Q367.764,577.03,390.2,498.091c.312-1.1.752-2.164,1.483-4.241.9,2.742,1.658,4.549,2.077,6.433,7.118,31.988,14.082,64.011,21.391,95.955,1.155,5.045-.2,8.088-4.01,11.155-21.408,17.231-42.686,34.624-63.993,51.98a8.156,8.156,0,0,0-1.157,1.507Z" transform="translate(15.007 -330.88)"/><path class="cls-3" d="M-15.007,536.88c.341-4.119.964-8.238.978-12.359.092-25.638.047-51.277.047-76.916V441.4h11.7v41.473c.794-.111,1.229-.043,1.352-.208,7.611-10.165,18.1-12.845,29.757-10.137C40.345,475.2,46.444,483.8,49.261,494.865a46.955,46.955,0,0,1-1.552,28.445c-6.159,16.627-24.624,24.814-39.83,17.316-4.155-2.049-7.52-5.7-11.689-8.959l-.718,10.213H-15.007ZM39.3,508.4l-.68-.247c-.183-2.484-.2-4.994-.579-7.447-1.811-11.7-10.252-19.883-20.272-19.778-9.6.1-18.349,7.729-19.7,17.919-.7,5.234-.43,10.628-.256,15.938a19.363,19.363,0,0,0,15.434,18.4c8.937,2,17.687-1.8,21.6-10.2C36.975,518.428,37.859,513.285,39.3,508.4Z" transform="translate(15.007 -330.88)"/><path class="cls-4" d="M622.993,464.88H581.216c3.6-9.8,7.112-19.34,10.784-29.327l30.993,28.327Z" transform="translate(15.007 -330.88)"/><path class="cls-4" d="M398.439,487.4c12.577-45.7,24.948-90.647,37.64-136.761,38.463,53.7,76.268,106.478,114.073,159.256l-.771,1.226Z" transform="translate(15.007 -330.88)"/><path class="cls-1" d="M418.669,581.6c-6.707-29.317-13.219-57.779-19.974-87.31L543.4,517.4l.432,1.416Z" transform="translate(15.007 -330.88)"/><path class="cls-5" d="M88.814,495.55c-7.03,5.361-9.929,11.62-9.156,20.145.775,8.543.171,17.21.171,26.082H67.262V446.053H79.671v45.465c6.247-7.78,11.569-14.448,16.934-21.08,5.549-6.86,11.3-13.563,16.636-20.586,2.347-3.091,4.823-4.607,8.738-4.2,3.084.318,6.228.064,10.543.064-11.958,14.058-23.209,27.287-34.785,40.9L135.2,541.99c-5.192,0-9.564.243-13.876-.154-1.226-.114-2.5-1.944-3.377-3.24-8.773-12.948-17.464-25.952-26.19-38.932C90.844,498.3,89.849,496.991,88.814,495.55Z" transform="translate(15.007 -330.88)"/><path class="cls-1" d="M511.671,446.481l75.057-13.568c-9.533,26.049-18.836,51.467-28.571,78.069Z" transform="translate(15.007 -330.88)"/><path class="cls-5" d="M271.511,440.908h12.206v41.553a12.692,12.692,0,0,0,2.025-1.351c7.78-8.848,18.259-12.126,28.218-8.553,10.81,3.879,15.491,12.528,15.891,23.192.566,15.129.143,30.295.143,45.872H317.486c0-1.835.015-3.754,0-5.673-.113-12.655.152-25.329-.467-37.96-.52-10.594-6.81-16.422-15.925-16.1a17.987,17.987,0,0,0-17.026,17.647c-.241,12.157-.068,24.322-.073,36.484,0,1.8,0,3.6,0,5.713H271.511Z" transform="translate(15.007 -330.88)"/><path class="cls-5" d="M181.933,497.7c.213-11.857-5.2-17.574-16.378-16.744-5.678.422-11.241,2.408-17.362,3.8-.667-1.92-1.565-4.5-2.609-7.508,11.9-6.172,23.852-8.683,36.2-3.318,10.253,4.453,12.73,13.907,12.989,24.013.286,11.155.115,22.322.245,33.482.038,3.315.418,6.626.664,10.278H184.439l-.973-6.037c-5.866,2.566-11.408,6.011-17.425,7.4-11.141,2.571-20.729-2.941-24.187-12.616-3.6-10.068.345-21.676,10.469-26.263,7.1-3.22,15.209-4.277,22.913-6.108C177.282,497.594,179.5,497.817,181.933,497.7Zm.5,9.37c-8.28-.54-15.636.123-22.376,3.867-5.208,2.894-7.3,7.923-6.264,13.963.857,5.026,3.891,7.957,8.78,8.895a16.8,16.8,0,0,0,19.809-14.878C182.7,515.146,182.436,511.327,182.436,507.07Z" transform="translate(15.007 -330.88)"/><path class="cls-5" d="M209.913,538.815c1.122-3.444,2.088-6.411,2.843-8.73,6.075,1.317,11.739,3.141,17.517,3.641,6.629.573,11.338-2.853,12.515-7.675,1.279-5.235-1.386-9.714-7.875-12.834-3.889-1.87-8.027-3.246-11.827-5.269-7.3-3.888-11.992-9.688-11-18.45.979-8.654,6.135-14.1,14.292-16.836a32.271,32.271,0,0,1,26.527,3.226c-.948,2.732-1.919,5.528-2.8,8.062-4.943-1.051-9.643-2.558-14.433-2.94-5.864-.468-10,2.6-11.215,7.162-1.168,4.374.965,8.027,6.672,10.837,4.018,1.978,8.29,3.45,12.26,5.511,9.339,4.849,12.9,11.406,11.754,20.982-1.022,8.517-6.493,14.52-16.115,16.793A41.577,41.577,0,0,1,209.913,538.815Z" transform="translate(15.007 -330.88)"/><path class="cls-4" d="M441.634,576.955l110.045-56.1c-2.045,8.7-3.717,15.037-12.828,18.477C507,551.358,475.583,564.514,444,577.233c-.589.237-1.221.366-1.833.546Z" transform="translate(15.007 -330.88)"/><path class="cls-2" d="M268.127,358.186c4.785,0,9.584-.217,14.344.123a7.2,7.2,0,0,1,4.527,2.6q22.226,28.272,44.211,56.733c.279.359.345.883-.217,2.045L267.44,359.542Z" transform="translate(15.007 -330.88)"/></svg>