<svg id="Layer_1" data-name="Layer 1" xmlns="http://www.w3.org/2000/svg" viewBox="0 0 269.284 101.309"><defs><style>.cls-1{fill:#fff;}</style></defs><path class="cls-1" d="M285.921,383.509c0-.013,0-.026,0-.039h0C285.92,383.483,285.921,383.5,285.921,383.509Z" transform="translate(-140.63 -343.421)"/><path class="cls-1" d="M295.288,373.413c-1.563-.009-3.123-.077-4.68-.232a5.013,5.013,0,0,1-4.441-4.441,50.373,50.373,0,0,1-.245-5.4,50.116,50.116,0,0,1-.247,5.4,5.013,5.013,0,0,1-4.441,4.441,50.1,50.1,0,0,1-5.395.246,50.1,50.1,0,0,1,5.395.246,5.013,5.013,0,0,1,4.441,4.441,49.889,49.889,0,0,1,.245,5.356h0a50.412,50.412,0,0,1,.245-5.356,5.013,5.013,0,0,1,4.441-4.441c1.557-.155,3.117-.223,4.68-.233.239,0,.477-.015.715-.013C295.765,373.429,295.527,373.415,295.288,373.413Z" transform="translate(-140.63 -343.421)"/><path class="cls-1" d="M272.7,362.859a9.914,9.914,0,0,1-8.777-8.777,99.357,99.357,0,0,1-.486-10.661,99.1,99.1,0,0,1-.486,10.661,9.908,9.908,0,0,1-8.776,8.776,98.841,98.841,0,0,1-10.661.486,99.1,99.1,0,0,1,10.661.487,9.908,9.908,0,0,1,8.776,8.776,99.1,99.1,0,0,1,.486,10.661,99.357,99.357,0,0,1,.486-10.661,9.909,9.909,0,0,1,8.777-8.776,99.357,99.357,0,0,1,10.661-.486A99.357,99.357,0,0,1,272.7,362.859Z" transform="translate(-140.63 -343.421)"/><path class="cls-1" d="M277.409,352.734a2.978,2.978,0,0,1,.879,1.833,30.7,30.7,0,0,1,.15,3.294,30.7,30.7,0,0,1,.15-3.294,3.063,3.063,0,0,1,2.712-2.712,30.7,30.7,0,0,1,3.294-.15,30.7,30.7,0,0,1-3.294-.15,3.063,3.063,0,0,1-2.712-2.711,30.746,30.746,0,0,1-.15-3.3,30.735,30.735,0,0,1-.151,3.3,3.061,3.061,0,0,1-2.711,2.711,30.7,30.7,0,0,1-3.294.15,30.7,30.7,0,0,1,3.294.15A2.978,2.978,0,0,1,277.409,352.734Z" transform="translate(-140.63 -343.421)"/><path class="cls-1" d="M156.418,361.278a.046.046,0,0,0-.025.008l-.015,0a1.313,1.313,0,0,1-.446-.216,1.4,1.4,0,0,0-.727-.237.3.3,0,0,0-.269.107.126.126,0,0,1-.1.066.085.085,0,0,1-.048-.013.056.056,0,0,0-.027-.008c-.04,0-.09.049-.113.123s-.069.121-.1.122a.028.028,0,0,1-.02-.009.081.081,0,0,0-.047-.013.254.254,0,0,0-.135.058c-.059.052-.2.166-.308.249-.167.125-.049.14,1.028.128l.282,0c1.478-.031,1.509-.032,1.312-.22A.473.473,0,0,0,156.418,361.278Z" transform="translate(-140.63 -343.421)"/><path class="cls-1" d="M153.642,357.712c-.032,0-.067.029-.12.085a.51.51,0,0,1-.342.149c-.294.006-1.075.427-1.052.568a.816.816,0,0,0,.606.453h0a1.777,1.777,0,0,0,.658-.51c.376-.4.455-.535.361-.655C153.707,357.742,153.676,357.712,153.642,357.712Z" transform="translate(-140.63 -343.421)"/><path class="cls-1" d="M158.313,358.667c.158-.184.217-.41.115-.41h0l-.021,0h-.01a1.76,1.76,0,0,1-.739-.43c0-.017-.03-.027-.076-.027a.514.514,0,0,0-.127.021.306.306,0,0,1-.09.012.664.664,0,0,1-.337-.094.437.437,0,0,0-.228-.09.14.14,0,0,0-.107.047c-.08.082-.058.163.077.291a.737.737,0,0,0,.236.177h0a1.989,1.989,0,0,1,.372.346.853.853,0,0,0,.587.335A.46.46,0,0,0,158.313,358.667Z" transform="translate(-140.63 -343.421)"/><path class="cls-1" d="M171.867,439.818c-.141-.461-.595-.945-.889-.942h0c-.08,0-.14-.038-.141-.078a8.17,8.17,0,0,0-2.806-1.073h-.009a.493.493,0,0,1-.3-.084,33.3,33.3,0,0,0-5.691-.749c-.5-.02-1.461-.071-2.131-.127-1.178-.087-1.218-.1-1.223-.318,0-.131.035-.244.086-.245s.058-.112.035-.253,0-.263.055-.285.106-.275.1-.558.04-.527.091-.528.029-.051-.053-.1c-.1-.058-.114-.1-.023-.1s.113-.448.082-1.873a12.338,12.338,0,0,0-.11-1.868h0c-.05,0-.085-.191-.1-.423s-.06-.434-.111-.453-.084-.17-.068-.332c.027-.192-.006-.3-.076-.3h0c-.07,0-.091-.049-.062-.1.058-.112-.169-.8-.27-.8h0a2.248,2.248,0,0,1-.036-.707c.012-.384-.015-.707-.065-.707h0a15.1,15.1,0,0,1-.067-3.133,2.373,2.373,0,0,0,.031-.911c-.032-.566-.009-.91.052-.911s.029-.051-.053-.1c-.113-.069-.124-.1-.022-.1s.128-.154.088-.608c-.017-.334,0-.607.048-.608s.058-.113.035-.254-.015-.252.045-.254.069-.112.046-.253-.016-.253.045-.254.079-.1.046-.234a.606.606,0,0,1,.212-.48.976.976,0,0,1,.282-.22l.008,0a.028.028,0,0,0,.018.006c.117,0,.384-.629.377-.935s-.091-.463-.412-.78a1.828,1.828,0,0,0-.494-.394h0a.81.81,0,0,1-.318-.195l-.227-.208-.106-4.973c-.058-2.739-.066-5.025-.027-5.076a4.519,4.519,0,0,1,1.325-.129,4.519,4.519,0,0,0,1.295-.129c.015-.051.248-.085.576-.089.067,0,.138,0,.212,0s.143,0,.209,0c.316,0,.551-.036.55-.078s.125-.059.306-.061c.075,0,.16,0,.25.009s.188.008.262.008c.194,0,.295-.03.294-.081s.037-.074.09-.074a.164.164,0,0,1,.06.01.18.18,0,0,0,.085.02c.04,0,.067-.018.067-.043,0-.044.169-.069.4-.072h.1c.063,0,.123,0,.179,0,.189,0,.327-.026.327-.065s.1-.062.255-.064c.046,0,.1,0,.149,0s.106,0,.153,0c.147,0,.252-.023.251-.054,0-.051.241-.106.524-.132a1.674,1.674,0,0,0,.586-.114.838.838,0,0,1,.4-.1c.5-.03,1.01-.163,1.008-.243,0-.028.065-.048.159-.049a.838.838,0,0,1,.144.012,1.021,1.021,0,0,0,.12,0c.11,0,.184-.022.183-.052,0-.051.15-.1.322-.118s.343-.068.363-.119.083-.053.185-.054a1.119,1.119,0,0,1,.138.007,1.013,1.013,0,0,0,.12,0c.11,0,.184-.022.183-.052,0-.051.119-.1.271-.117s.293-.057.3-.108.095-.065.2-.067a.761.761,0,0,1,.122.01c.024,0,.047,0,.071,0a.539.539,0,0,0,.392-.165.509.509,0,0,1,.226-.159.017.017,0,0,1,.014,0h0a10.225,10.225,0,0,0,.059-1.5,5.749,5.749,0,0,0-.1-1.515h0c-.05,0-.082-.059-.083-.13a7.692,7.692,0,0,0-.249-1.683h0c-.04,0-.085-.191-.11-.423a1.074,1.074,0,0,0-.112-.483,1.167,1.167,0,0,1-.1-.5,2.582,2.582,0,0,0-.248-1.208h0a.845.845,0,0,1-.04-.445.745.745,0,0,0-.114-.574.523.523,0,0,1-.11-.412c.017-.152-.006-.283-.046-.282h0c-.05,0-.075-.221-.071-.494.024-.324-.021-.536-.114-.615a.645.645,0,0,1-.112-.473c.017-.182-.007-.333-.057-.332h0c-.051,0-.075-.161-.058-.353s-.008-.353-.048-.353h0c-.05,0-.1-.149-.118-.321s-.068-.342-.119-.361-.065-.181-.048-.373-.008-.354-.048-.353h0c-.05,0-.1-.14-.108-.322s-.068-.342-.119-.351-.075-.191-.059-.383-.007-.354-.047-.353h0c-.05,0-.1-.12-.117-.271s-.057-.292-.108-.3-.074-.18-.058-.373a.657.657,0,0,0-.112-.473.3.3,0,0,1-.107-.27c.019-.061,0-.121-.052-.121h0c-.051,0-.084-.14-.057-.3s-.006-.3-.047-.3h0c-.051,0-.1-.1-.116-.23-.039-.4-.171-.876-.242-.875h0c-.03,0-.073-.1-.086-.231-.05-.443-.17-.875-.261-.874h0c-.05,0-.062-.07-.033-.151s.017-.152-.023-.151h0c-.051,0-.1-.14-.118-.321a.724.724,0,0,0-.109-.372.4.4,0,0,1-.107-.261,2.828,2.828,0,0,0-.422-1.225.146.146,0,0,1-.075-.19c.029-.081,0-.141-.063-.141h0c-.06,0-.082-.069-.053-.15s.007-.151-.063-.15h0c-.06,0-.081-.05-.052-.1s.008-.1-.052-.1h0c-.06,0-.081-.05-.052-.1a1.73,1.73,0,0,0-.507-1h0c-.06,0-.08-.029-.04-.06.079-.092-.332-.841-.464-.839h0c-.06,0-.081-.04-.041-.091.058-.122-.351-.81-.494-.808h0c-.05,0-.07-.039-.031-.091s-.024-.171-.117-.25-.135-.159-.115-.159a4.9,4.9,0,0,0-.365-.963,6.627,6.627,0,0,1-.421-1.2c0-.131-.035-.242-.076-.241h0c-.051,0-.088-.322-.1-.706s.015-.708.066-.709.068-.133.065-.3a4.939,4.939,0,0,1,.133-.893c.074-.325.136-.731.153-.893a.635.635,0,0,1,.114-.366.892.892,0,0,0,.091-.457.868.868,0,0,1,.082-.457.665.665,0,0,0,.094-.356.784.784,0,0,1,.073-.345,9.909,9.909,0,0,0,.167-2.664c-.053-.575-.047-.777.044-.779s.1-.276.07-1.013a4.229,4.229,0,0,1,.008-1.012,4.042,4.042,0,0,0,.2-1.5,1.2,1.2,0,0,1,.059-.527c.091,0,.2-.57.21-1.1,0-.233.042-.426.092-.427s.058-.143.034-.3-.016-.3.034-.3.06-.052.029-.1-.013-.1.058-.1.1-.134.064-.356c-.025-.191-.008-.363.032-.374a.735.735,0,0,0,.093-.407c.016-.213.063-.386.113-.387s.059-.112.036-.253-.016-.253.024-.254.09-.062.089-.143c0-.065.039-.1.126-.1a.513.513,0,0,1,.125.015.671.671,0,0,0,.1,0c.093,0,.156-.023.155-.061s.2-.085.455-.091h.029a.88.88,0,0,1,.428.051c0,.041.215.117.47.172a1.588,1.588,0,0,1,1.361,1.135,3.935,3.935,0,0,1,.245,1.036,2.6,2.6,0,0,1-.475,1.487,1.085,1.085,0,0,1-.777.268,1.611,1.611,0,0,1-.638-.117c-.225-.1-.39-.194-.36-.225s-.023-.141-.107-.261a1.3,1.3,0,0,1,.033-1.315c.132-.172.251-.259.354-.26.176,0,.309.239.4.719.034.2.092.534.127.726.056.278.107.35.294.347h.007c.284-.006.511-.253.416-.464-.032-.08-.014-.151.037-.152s.095-.275.088-.609-.053-.605-.114-.6h0c-.051,0-.072-.059-.043-.131s-.066-.221-.19-.339a1.507,1.507,0,0,0-1.012-.361,1.767,1.767,0,0,0-1.6,1.083,1.309,1.309,0,0,0-.014,1.265,1.343,1.343,0,0,1,.161.421.244.244,0,0,0,.156.2.256.256,0,0,1,.156.189.631.631,0,0,0,.209.3.411.411,0,0,0,.183.109c.015,0,.022-.008.022-.023s0-.016.01-.016.082.062.155.155a.393.393,0,0,0,.269.182.1.1,0,0,0,.039-.007.259.259,0,0,1,.081-.019c.037,0,.061.015.061.046,0,.13.494.3.867.3h.011a1.793,1.793,0,0,0,.675-.176c.411-.221.977-.769.9-.889-.031-.039.018-.111.108-.144a.168.168,0,0,0,.107-.2c-.032-.08-.023-.141.028-.142s.129-.114.187-.257a3.845,3.845,0,0,0-.03-1.87h0c-.05,0-.071-.05-.042-.1s.029-.1-.021-.1h0c-.041,0-.094-.13-.108-.3a2.2,2.2,0,0,0-.755-1.2.555.555,0,0,1-.27-.3.267.267,0,0,0-.216-.2h0c-.08,0-.121-.049-.092-.1s-.023-.131-.125-.159-.368-.134-.593-.231a5.044,5.044,0,0,0-1.354-.477h-.006a7.122,7.122,0,0,1-1.517-.444,4.755,4.755,0,0,0-1.753-.4,1.6,1.6,0,0,0-.755.173,2.044,2.044,0,0,1-.777.169c-.274.005-.961.091-1.527.174s-1.465.2-1.971.233l-.941.051-.014-.637c-.008-.354-.054-.636-.115-.635h0c-.051,0-.072-.059-.053-.13.076-.2-.331-.752-.689-.916a.985.985,0,0,0-.456-.108,1.44,1.44,0,0,0-.955.472,2.96,2.96,0,0,0-.6.8c-.2.443-.192.985,0,.983l.022,0a.1.1,0,0,1,.033-.006.084.084,0,0,1,.09.074.078.078,0,0,0,.086.074.124.124,0,0,0,.037-.006c.222-.045.449-.333.612-.782.155-.425.283-.622.443-.624a.531.531,0,0,1,.338.2c.332.327.367.569.144,1.059a1.369,1.369,0,0,1-1.2.768.926.926,0,0,1-.531-.145,1.936,1.936,0,0,1-.655-1.24c0-.161-.037-.3-.077-.3h0c-.05,0-.083-.11-.086-.251s.025-.254.076-.255.069-.082.067-.183a.735.735,0,0,1,.144-.367c.079-.1.117-.235.085-.275s-.012-.091.039-.092a6.523,6.523,0,0,0,1.135-1.41.733.733,0,0,1,.238-.268c.119-.1.218-.217.207-.257a1.584,1.584,0,0,1,.345-.462c.208-.217.345-.442.314-.492s-.012-.091.059-.093.1-.032.059-.061.027-.163.136-.286a.477.477,0,0,0,.144-.388c-.023-.1,0-.182.037-.183a3.76,3.76,0,0,0-.111-1.878c-.083-.079-.115-.139-.064-.141s-.012-.07-.115-.149-.165-.148-.125-.149c.173,0-.2-.319-.568-.5a2.1,2.1,0,0,0-.891-.169,2.052,2.052,0,0,0-.942.218,3,3,0,0,0-1.346,2.011c0,.242.316.639.519.636h0c.222,0,.586-.528.58-.831a.51.51,0,0,1,.094-.346c.06-.042.089-.093.068-.133-.095-.17.326-.381.832-.432a2.561,2.561,0,0,0,.586-.073l.01,0a.86.86,0,0,1,.288.179,1.468,1.468,0,0,1,.511,1.173,4.906,4.906,0,0,1-1.1,1.965c-.307.35-.663.762-.792.907a8.274,8.274,0,0,0-1.106,1.813,3.081,3.081,0,0,0,.1,2.314c.2.178.2.188.015.232a.477.477,0,0,1-.074.007,2.419,2.419,0,0,1-.475-.066,18.46,18.46,0,0,0-1.991-.241,6.4,6.4,0,0,1-1.77-.286.439.439,0,0,0-.3-.1.508.508,0,0,0-.11.012c-.141.034-.514.112-.817.179s-1.009.2-1.564.307a13.041,13.041,0,0,0-3.574,1.127,4.942,4.942,0,0,0-1.485,1.64.977.977,0,0,1-.164.418c-.147.215-.172.478-.151,1.469.024,1.142.047,1.233.3,1.612.323.462.7.813.858.812a.076.076,0,0,0,.041-.012.087.087,0,0,1,.041-.011.133.133,0,0,1,.112.1c.04.082.142.112.4.109.084,0,.185,0,.307-.013.738-.056,1.141-.2,1.227-.44.023-.074.073-.123.118-.123a.058.058,0,0,1,.031.008.05.05,0,0,0,.032.008c.208,0,.848-.882.954-1.333.12-.537.123-.861,0-.86h0c-.05,0-.072-.08-.044-.191a.388.388,0,0,0-.119-.331c-.083-.09-.125-.18-.095-.221s-.033-.09-.135-.128a.588.588,0,0,1-.267-.177,1.236,1.236,0,0,0-.542-.241,1.663,1.663,0,0,0-.446-.066,1.545,1.545,0,0,0-.456.085,1.064,1.064,0,0,0-.844.8c-.234.6.129,1.906.457,1.9a.155.155,0,0,0,.109-.055c.059-.061.068-.112.019-.111h0c-.049,0,0-.061.1-.144.13-.094.187-.267.181-.56,0-.223.041-.416.092-.417s.058-.132.035-.284c-.043-.26.053-.457.178-.459a.186.186,0,0,1,.138.079.261.261,0,0,0,.174.1.081.081,0,0,0,.041-.011.086.086,0,0,1,.038-.013c.031,0,.053.028.054.072a1.532,1.532,0,0,0,.182.471.741.741,0,0,1,.046.727,1.207,1.207,0,0,1-1.117.93,1.4,1.4,0,0,1-.681-.184c-.225-.116-.411-.244-.4-.274.007-.122-.163-.512-.224-.511h0a5.1,5.1,0,0,1-.024-1.618.606.606,0,0,0,.1-.255.649.649,0,0,1,.155-.337c.069-.082.1-.174.066-.224s.017-.131.1-.2a.279.279,0,0,1,.132-.081c.012,0,.018,0,.019.017s.007.016.02.016a.6.6,0,0,0,.211-.1,2.046,2.046,0,0,1,.6-.215c.2-.044.373-.109.372-.149a1.554,1.554,0,0,1,.657-.085h.046c.343,0,.614.03.615.078,0,.025.027.042.066.041a.181.181,0,0,0,.086-.024.2.2,0,0,1,.072-.015c.046,0,.08.021.081.063s.1.073.245.071a1.2,1.2,0,0,0,.141-.009c.033,0,.065,0,.1,0,.367,0,.638.174.643.445a.869.869,0,0,0,.11.371,47.631,47.631,0,0,1,1.248,6.254c.061.525.173,1.493.248,2.159s.218,1.654.31,2.188a12.763,12.763,0,0,1,.172,1.422,5.406,5.406,0,0,0,.238,1.188c.774,2.543.834,2.986.582,3.973a9.9,9.9,0,0,1-1.457,3.014,13.571,13.571,0,0,0-1.647,3.524c-.048.162-.19.62-.313,1.018s-.4,1.262-.577,1.933-.405,1.445-.481,1.719a3.525,3.525,0,0,0-.137.691.968.968,0,0,1-.1.4,2.739,2.739,0,0,0-.168.681c-.071.446-.136.761-.423,2-.066.274-.167.732-.232,1.016s-.156.782-.23,1.117-.193.915-.266,1.29c-.138.65-.24,1.138-.554,2.571-.257,1.229-.713,3.17-.9,3.862-.1.386-.234.894-.28,1.118a2.492,2.492,0,0,1-.191.53,1.3,1.3,0,0,0-.109.6c-.011.435.01.485.338.66a1.133,1.133,0,0,0,.433.14.136.136,0,0,0,.046-.008.18.18,0,0,1,.07-.016c.044,0,.072.022.073.063a.074.074,0,0,0,.083.071.181.181,0,0,0,.06-.013.172.172,0,0,1,.066-.013.125.125,0,0,1,.128.079,1.709,1.709,0,0,0,.913.3.212.212,0,0,0,.1-.019.053.053,0,0,1,.032-.012c.027,0,.049.027.05.071a.075.075,0,0,0,.083.077.154.154,0,0,0,.07-.019.181.181,0,0,1,.065-.014c.05,0,.088.025.088.061s.064.075.153.074a.493.493,0,0,0,.082-.008.467.467,0,0,1,.076-.007.446.446,0,0,1,.29.09.3.3,0,0,0,.214.1.18.18,0,0,0,.062-.012.231.231,0,0,1,.085-.019c.035,0,.057.012.057.036a3.56,3.56,0,0,0,1.456.334h.015c.2,0,.361.034.362.064,0,.1.582.2,1.149.208h.024a.915.915,0,0,1,.454.061,4.17,4.17,0,0,0,1.524.2h.032a1.4,1.4,0,0,1,.578.069,4.865,4.865,0,0,0,.985.08,2.969,2.969,0,0,1,.944.081,3.619,3.619,0,0,0,1.05.058l.208,0,.3,0c.718-.008.99.021,1.073.118a37.9,37.9,0,0,1,.2,5.062c.07,4.691.065,4.934-.115,5.049-1.461.911-1.645,1.784-.551,2.692.361.316.393.375.588,1.443a43.345,43.345,0,0,1,.2,8.1c-.074.346-.2.874-.269,1.179a17.833,17.833,0,0,0-.1,4.755,19.125,19.125,0,0,0,.284,1.906c.088.321.1.463.021.515a16.34,16.34,0,0,1-1.951.223,42.6,42.6,0,0,0-5.022.693c-2.361.516-4.31,1.325-5.043,2.089-.357.372-.376.423-.363,1.029a1.606,1.606,0,0,0,.831,1.415.036.036,0,0,0,.019-.007.075.075,0,0,1,.04-.013.057.057,0,0,1,.053.062,4.723,4.723,0,0,0,2.058,1.008c.1.008.194.036.194.067a2.878,2.878,0,0,0,1.2.356.174.174,0,0,0,.064-.009.221.221,0,0,1,.088-.023c.045,0,.074.021.075.06a.077.077,0,0,0,.085.075.106.106,0,0,0,.038-.007.153.153,0,0,1,.049-.01.36.36,0,0,1,.227.106.517.517,0,0,0,.341.1.793.793,0,0,0,.1-.008.937.937,0,0,1,.168-.021c.069,0,.115.012.116.036a3.176,3.176,0,0,0,1.2.244.257.257,0,0,0,.121-.02.182.182,0,0,1,.088-.026.123.123,0,0,1,.105.053,1.248,1.248,0,0,0,.651.127c.315.014.579.059.58.109,0,.034.089.047.22.046.069,0,.15-.006.237-.015a2.085,2.085,0,0,1,.24-.019c.132,0,.216.017.217.05s.177.066.468.062c.128,0,.278-.008.445-.021.118,0,.231-.008.335-.009.339,0,.577.012.578.051s.19.047.478.044c.168,0,.37-.011.586-.026s.418-.025.587-.027c.287,0,.477.013.478.044a6.04,6.04,0,0,0,1.286.053l.235,0a6.743,6.743,0,0,0,1.518-.113,2.516,2.516,0,0,1,.759-.059l.2,0c.106,0,.208,0,.3,0a1.548,1.548,0,0,0,.658-.072,2.729,2.729,0,0,1,.821-.07h.141c.1,0,.207,0,.3,0a1.577,1.577,0,0,0,.658-.071c0-.041.17-.085.383-.1a5.29,5.29,0,0,0,1.737-.3.045.045,0,0,1,.049-.049.146.146,0,0,1,.062.016.226.226,0,0,0,.112.017,2.831,2.831,0,0,0,1.188-.318c0-.024.023-.038.056-.039a.212.212,0,0,1,.076.016.172.172,0,0,0,.052.006,9.855,9.855,0,0,0,1.762-.479c.09-.032.17-.1.169-.155s.018-.056.046-.056a.091.091,0,0,1,.044.013.06.06,0,0,0,.031.006,8.421,8.421,0,0,0,2.008-.858C171.707,441.349,172.107,440.612,171.867,439.818Zm-26.518-82.74a.628.628,0,0,1-.194-.034l-.235-.076.252-.066a.766.766,0,0,1,.162-.021c.069,0,.12.011.132.035C145.51,357.019,145.462,357.077,145.349,357.078Zm8.045,1.379a1.777,1.777,0,0,1-.658.51h0a.816.816,0,0,1-.606-.453c-.023-.141.758-.562,1.052-.568a.51.51,0,0,0,.342-.149c.053-.056.088-.084.12-.085s.065.03.113.09C153.849,357.922,153.77,358.055,153.394,358.457Zm1.953,3.185-.282,0c-1.077.012-1.195,0-1.028-.128.109-.083.249-.2.308-.249a.254.254,0,0,1,.135-.058.081.081,0,0,1,.047.013.028.028,0,0,0,.02.009c.03,0,.068-.048.1-.122s.073-.122.113-.123a.056.056,0,0,1,.027.008.085.085,0,0,0,.048.013.126.126,0,0,0,.1-.066.3.3,0,0,1,.269-.107,1.4,1.4,0,0,1,.727.237,1.313,1.313,0,0,0,.446.216l.015,0a.046.046,0,0,1,.025-.008.473.473,0,0,1,.241.144C156.856,361.61,156.825,361.611,155.347,361.642Zm2.031-3.128a1.989,1.989,0,0,0-.372-.346h0a.737.737,0,0,1-.236-.177c-.135-.128-.157-.209-.077-.291a.14.14,0,0,1,.107-.047.437.437,0,0,1,.228.09.664.664,0,0,0,.337.094.306.306,0,0,0,.09-.012.514.514,0,0,1,.127-.021c.046,0,.076.01.076.027a1.76,1.76,0,0,0,.739.43h.01l.021,0h0c.1,0,.043.226-.115.41a.46.46,0,0,1-.348.182A.853.853,0,0,1,157.378,358.514Z" transform="translate(-140.63 -343.421)"/><path class="cls-1" d="M178.279,411.69V387.609h5.177v17.818h12.955l-3.326,6.263Z" transform="translate(-140.63 -343.421)"/><path class="cls-1" d="M220.894,399.632c0,8.423-3.953,12.454-12.255,12.454-8.279,0-12.2-4-12.2-12.454,0-8.423,3.9-12.419,12.2-12.419S220.894,391.209,220.894,399.632Zm-19.308,0c0,4.895,1.5,6.191,7.053,6.191,5.6,0,7.077-1.3,7.077-6.191s-1.45-6.155-7.077-6.155C203.062,393.477,201.586,394.772,201.586,399.632Z" transform="translate(-140.63 -343.421)"/><path class="cls-1" d="M247.425,399.632c0,8.423-3.952,12.454-12.255,12.454-8.278,0-12.2-4-12.2-12.454,0-8.423,3.9-12.419,12.2-12.419S247.425,391.209,247.425,399.632Zm-19.308,0c0,4.895,1.5,6.191,7.053,6.191,5.6,0,7.077-1.3,7.077-6.191s-1.45-6.155-7.077-6.155C229.593,393.477,228.117,394.772,228.117,399.632Z" transform="translate(-140.63 -343.421)"/><path class="cls-1" d="M273.231,411.69l-2.651-13.966-4.351,11.663c-.776,2.015-1.576,2.7-3.1,2.7-1.551,0-2.352-.684-3.1-2.7l-4.251-11.663-2.726,13.966H247.8l4.351-21.129c.426-2.123,1.5-3.348,2.952-3.348,1.2,0,2.15.864,2.8,2.52l5.328,14.29,5.352-14.29c.625-1.656,1.6-2.52,2.8-2.52,1.426,0,2.551,1.3,2.951,3.348l4.251,21.129Z" transform="translate(-140.63 -343.421)"/><path class="cls-1" d="M296.285,411.69c-4.5,0-6.777-2.267-6.777-6.767a7.772,7.772,0,0,1,1.95-5.651,6.883,6.883,0,0,1-1.625-4.823c0-4.284,2.426-6.84,6.552-6.84h7l-3.352,6.264h-3.851a1.324,1.324,0,0,0-1.425,1.511c0,1.044.5,1.584,1.45,1.584h13.555l-2.876,5.292h-2.526v3.167h5.677l-3.326,6.263Zm3.852-9.43H296.01c-.9,0-1.351.54-1.351,1.584s.45,1.583,1.351,1.583h4.127Z" transform="translate(-140.63 -343.421)"/><path class="cls-1" d="M321.39,411.69V387.609h5.177v17.818h12.954L336.2,411.69Z" transform="translate(-140.63 -343.421)"/><path class="cls-1" d="M357,387.609h5.151V401.18c0,7.523-3.376,10.906-10.9,10.906-7.6,0-11.029-3.347-11.029-10.906V387.609H345.4V401.18c0,3.42,1.526,4.643,5.853,4.643,4.276,0,5.752-1.223,5.752-4.643Z" transform="translate(-140.63 -343.421)"/><path class="cls-1" d="M388.21,387.609l-8.653,11.771,9.078,12.31h-7.2l-5.752-7.81-5.6,7.81h-6.727l9.1-12.166-8.778-11.915h7.2l5.452,7.379,5.227-7.379Z" transform="translate(-140.63 -343.421)"/><path class="cls-1" d="M395.685,396.968h13.229l-3,5.328H395.685v3.131h14.229l-3.3,6.263H390.507V387.609H409.89l-3.352,6.264H395.685Z" transform="translate(-140.63 -343.421)"/><path class="cls-1" d="M211.716,424.58h10.142v2.6h-6.689v3.171h5.712v2.6h-5.712v5.319h-3.453Z" transform="translate(-140.63 -343.421)"/><path class="cls-1" d="M224.735,435.375c0-2.334,2.152-3.522,7.638-3.821-.121-.932-.9-1.5-2.462-1.5a8.743,8.743,0,0,0-3.54.974L225.143,429a11.991,11.991,0,0,1,5.433-1.409c3.266,0,5.243,1.522,5.243,4.714v5.954h-2.814l-.248-1.174h-.088a7.587,7.587,0,0,1-4.116,1.426C226.2,438.515,224.735,437.126,224.735,435.375Zm7.638-.248V433.42c-3.416.154-4.334.818-4.334,1.708,0,.67.63,1,1.6,1A4.733,4.733,0,0,0,232.373,435.127Z" transform="translate(-140.63 -343.421)"/><path class="cls-1" d="M238.581,436.919l1.464-1.928a9.61,9.61,0,0,0,4.685,1.235c1.279,0,1.843-.38,1.843-.893,0-.58-.563-.793-2.842-1.224-3.159-.606-4.414-1.645-4.414-3.254,0-1.94,2.021-3.26,5.336-3.26a10.169,10.169,0,0,1,5.028,1.423l-1.544,1.855a8.113,8.113,0,0,0-3.8-1c-1.075,0-1.609.344-1.609.833,0,.579.713.715,2.682,1.11,3.583.72,4.58,1.635,4.58,3.331,0,1.886-2.005,3.363-5.731,3.363A11.683,11.683,0,0,1,238.581,436.919Z" transform="translate(-140.63 -343.421)"/><path class="cls-1" d="M253.07,423.556h3.446v3.589l-.2,2h.087a5.525,5.525,0,0,1,3.849-1.554c2.607,0,3.763,1.609,3.763,4.236v6.432h-3.446v-6.034c0-1.386-.445-2-1.7-2a3.367,3.367,0,0,0-2.348,1.084v6.951H253.07Z" transform="translate(-140.63 -343.421)"/><path class="cls-1" d="M271.935,430.269h-4.676v-2.422h8.122v10.416h-3.446Zm-.722-5.938a2.323,2.323,0,0,1,4.576,0c0,1.137-.96,1.889-2.288,1.889S271.213,425.468,271.213,424.331Z" transform="translate(-140.63 -343.421)"/><path class="cls-1" d="M280.563,433.061c0-3.468,2.858-5.466,5.922-5.466s5.921,2,5.921,5.466-2.857,5.454-5.921,5.454S280.563,436.517,280.563,433.061Zm8.317,0c0-1.807-.81-2.972-2.395-2.972s-2.4,1.165-2.4,2.972.809,2.96,2.4,2.96S288.88,434.86,288.88,433.061Z" transform="translate(-140.63 -343.421)"/><path class="cls-1" d="M295.19,427.847H298l.248,1.388h.094a5.926,5.926,0,0,1,4.013-1.64c2.625,0,3.78,1.609,3.78,4.236v6.432h-3.445v-6.034c0-1.386-.446-2-1.7-2a3.367,3.367,0,0,0-2.348,1.084v6.951H295.19Z" transform="translate(-140.63 -343.421)"/><path class="cls-1" d="M322.763,436.539l1.981-2.127a6.961,6.961,0,0,0,4.055,1.428c1.465,0,2.141-.509,2.141-1.178,0-.985-.906-1.224-2.35-1.766l-1.986-.76c-1.691-.576-3.234-1.74-3.234-3.731,0-2.265,2.276-4.077,5.59-4.077a7.872,7.872,0,0,1,5.066,1.792l-1.739,1.951A5.891,5.891,0,0,0,328.771,427c-1.136,0-1.908.423-1.908,1.222,0,.823,1.023,1.124,2.486,1.616l1.866.71c2,.672,3.259,1.789,3.259,3.72,0,2.274-2.128,4.244-5.9,4.244A9.394,9.394,0,0,1,322.763,436.539Z" transform="translate(-140.63 -343.421)"/><path class="cls-1" d="M339.7,433.946v-3.677h-2.927v-2.3l3.081-.12.444-3.185h2.847v3.185h4.9v2.422h-4.9v3.637c0,1.584.747,2.181,2.441,2.181a7.543,7.543,0,0,0,2.293-.371l.624,2.235a14.013,14.013,0,0,1-3.795.564C341.016,438.515,339.7,436.678,339.7,433.946Z" transform="translate(-140.63 -343.421)"/><path class="cls-1" d="M350.765,433.061c0-3.468,2.857-5.466,5.922-5.466s5.92,2,5.92,5.466-2.857,5.454-5.92,5.454S350.765,436.517,350.765,433.061Zm8.316,0c0-1.807-.81-2.972-2.394-2.972s-2.4,1.165-2.4,2.972.81,2.96,2.4,2.96S359.081,434.86,359.081,433.061Z" transform="translate(-140.63 -343.421)"/><path class="cls-1" d="M366.405,427.847h2.831l.273,2.278h.08a5.524,5.524,0,0,1,4.708-2.53,5.236,5.236,0,0,1,2.23.42l-.7,2.6a6.65,6.65,0,0,0-2.056-.305,4.33,4.33,0,0,0-3.921,2.539v5.418h-3.447Z" transform="translate(-140.63 -343.421)"/><path class="cls-1" d="M379.032,433.049c0-3.408,2.931-5.454,6.041-5.454,3.581,0,5.467,2.168,5.467,5a8.108,8.108,0,0,1-.144,1.383h-8.81v-2.071h6.48l-.542.589c0-1.673-.81-2.551-2.336-2.551-1.7,0-2.818,1.034-2.818,3.1,0,2.161,1.312,3.11,3.568,3.11a6.977,6.977,0,0,0,2.993-.723l1.14,1.861a9.637,9.637,0,0,1-4.6,1.218C381.849,438.515,379.032,436.511,379.032,433.049Z" transform="translate(-140.63 -343.421)"/></svg>