<svg id="Layer_1" data-name="Layer 1" xmlns="http://www.w3.org/2000/svg" viewBox="0 0 269.284 101.309"><defs><style>.cls-1{fill:#010101;}.cls-2{fill:none;}.cls-3{fill:#1e1f1d;}</style></defs><path class="cls-1" d="M286.293,395.568c0-.013,0-.027,0-.04h0C286.292,395.541,286.293,395.555,286.293,395.568Z" transform="translate(-141.003 -355.48)"/><path class="cls-1" d="M295.66,385.472c-1.563-.009-3.123-.077-4.68-.232a5.015,5.015,0,0,1-4.441-4.442,50.355,50.355,0,0,1-.245-5.395,50.1,50.1,0,0,1-.247,5.395,5.018,5.018,0,0,1-4.441,4.442,50.355,50.355,0,0,1-5.395.245,50.617,50.617,0,0,1,5.395.246,5.015,5.015,0,0,1,4.441,4.442,49.87,49.87,0,0,1,.245,5.355h0a50.393,50.393,0,0,1,.245-5.355,5.02,5.02,0,0,1,4.441-4.442c1.557-.155,3.117-.223,4.68-.232.239,0,.477-.016.715-.014C296.137,385.487,295.9,385.474,295.66,385.472Z" transform="translate(-141.003 -355.48)"/><path class="cls-1" d="M273.072,374.917a9.912,9.912,0,0,1-8.777-8.776,99.357,99.357,0,0,1-.486-10.661,98.841,98.841,0,0,1-.486,10.661,9.908,9.908,0,0,1-8.776,8.776,99.357,99.357,0,0,1-10.661.486,99.357,99.357,0,0,1,10.661.486,9.909,9.909,0,0,1,8.776,8.777,98.841,98.841,0,0,1,.486,10.661,99.357,99.357,0,0,1,.486-10.661,9.914,9.914,0,0,1,8.777-8.777,99.357,99.357,0,0,1,10.661-.486A98.841,98.841,0,0,1,273.072,374.917Z" transform="translate(-141.003 -355.48)"/><path class="cls-1" d="M277.781,364.793a2.978,2.978,0,0,1,.879,1.833,30.7,30.7,0,0,1,.15,3.294,30.7,30.7,0,0,1,.15-3.294,3.063,3.063,0,0,1,2.712-2.712,30.7,30.7,0,0,1,3.294-.15,30.7,30.7,0,0,1-3.294-.15,3.063,3.063,0,0,1-2.712-2.712,30.728,30.728,0,0,1-.15-3.295,30.471,30.471,0,0,1-.151,3.295,3.061,3.061,0,0,1-2.711,2.712,30.7,30.7,0,0,1-3.294.15,30.7,30.7,0,0,1,3.294.15A2.978,2.978,0,0,1,277.781,364.793Z" transform="translate(-141.003 -355.48)"/><path class="cls-2" d="M156.79,373.337a.039.039,0,0,0-.025.008l-.015,0a1.3,1.3,0,0,1-.446-.215,1.409,1.409,0,0,0-.727-.238.3.3,0,0,0-.269.107.128.128,0,0,1-.1.067.094.094,0,0,1-.048-.013.043.043,0,0,0-.027-.008c-.04,0-.09.048-.113.122s-.069.122-.1.122a.027.027,0,0,1-.02-.008.074.074,0,0,0-.047-.013.251.251,0,0,0-.135.057c-.059.052-.2.166-.308.249-.166.126-.049.141,1.028.128l.282,0c1.479-.031,1.509-.032,1.312-.22A.47.47,0,0,0,156.79,373.337Z" transform="translate(-141.003 -355.48)"/><path class="cls-2" d="M154.014,369.771c-.032,0-.067.029-.12.085a.515.515,0,0,1-.342.149c-.294.006-1.075.427-1.052.568a.813.813,0,0,0,.606.452h0a1.782,1.782,0,0,0,.658-.509c.376-.4.455-.536.361-.655C154.079,369.8,154.048,369.771,154.014,369.771Z" transform="translate(-141.003 -355.48)"/><path class="cls-2" d="M158.685,370.725c.158-.184.217-.41.115-.409h0l-.021,0h-.009a1.759,1.759,0,0,1-.74-.431c0-.017-.03-.027-.076-.026a.471.471,0,0,0-.127.021.392.392,0,0,1-.09.012.664.664,0,0,1-.337-.094.432.432,0,0,0-.228-.091.147.147,0,0,0-.107.047c-.08.083-.058.163.077.292a.754.754,0,0,0,.236.177h0a1.989,1.989,0,0,1,.372.346.857.857,0,0,0,.587.335A.458.458,0,0,0,158.685,370.725Z" transform="translate(-141.003 -355.48)"/><path class="cls-1" d="M172.239,451.877c-.141-.461-.595-.946-.889-.942h0c-.08,0-.14-.038-.141-.078a8.142,8.142,0,0,0-2.806-1.073h-.009a.493.493,0,0,1-.3-.085,33.509,33.509,0,0,0-5.691-.749c-.5-.02-1.461-.07-2.131-.127-1.177-.086-1.218-.095-1.223-.318,0-.131.035-.243.086-.244s.058-.113.035-.254,0-.262.055-.284.106-.275.1-.558.039-.527.09-.528.029-.051-.053-.1c-.1-.059-.114-.1-.023-.1s.113-.447.082-1.872a12.373,12.373,0,0,0-.11-1.869h0c-.05,0-.085-.19-.1-.422s-.06-.434-.111-.453-.084-.17-.068-.332c.027-.193-.006-.3-.076-.3h0c-.07,0-.091-.049-.062-.1.059-.112-.169-.805-.27-.8h0a2.248,2.248,0,0,1-.036-.707c.013-.385-.015-.708-.065-.707h0a15.108,15.108,0,0,1-.067-3.134,2.369,2.369,0,0,0,.031-.91c-.032-.566-.009-.91.052-.912s.029-.051-.053-.1c-.113-.068-.124-.1-.022-.1s.128-.155.088-.609c-.017-.333,0-.607.048-.608s.058-.112.035-.253-.015-.253.045-.254.069-.113.046-.254-.016-.252.045-.254.079-.1.046-.233a.6.6,0,0,1,.212-.48,1.009,1.009,0,0,1,.282-.221l.008,0a.03.03,0,0,0,.018.006c.117,0,.384-.629.377-.935s-.091-.463-.411-.78a1.8,1.8,0,0,0-.5-.394h0a.816.816,0,0,1-.318-.2l-.227-.207-.106-4.974c-.058-2.739-.066-5.024-.027-5.076a4.559,4.559,0,0,1,1.325-.129,4.493,4.493,0,0,0,1.3-.128c.015-.051.248-.085.576-.089.067,0,.138,0,.212,0s.143,0,.209,0c.316,0,.551-.037.55-.079s.125-.059.306-.061c.076,0,.161,0,.25.009s.188.009.262.008c.194,0,.3-.029.294-.08s.037-.074.09-.075a.175.175,0,0,1,.061.011.2.2,0,0,0,.084.02c.04,0,.068-.018.067-.044,0-.044.169-.068.4-.071h.1c.063,0,.123,0,.179,0,.189,0,.328-.026.327-.065s.105-.062.255-.064c.046,0,.1,0,.149,0s.106,0,.153,0c.148,0,.252-.023.251-.053,0-.051.241-.107.524-.133a1.659,1.659,0,0,0,.586-.113.826.826,0,0,1,.4-.1c.5-.031,1.01-.163,1.008-.244,0-.027.065-.047.159-.048a.831.831,0,0,1,.144.011,1.035,1.035,0,0,0,.12.006c.11,0,.184-.022.184-.052,0-.051.149-.105.321-.118s.343-.068.363-.119c.006-.036.083-.053.185-.054a1.109,1.109,0,0,1,.138.006q.065.006.12.006c.11,0,.184-.022.183-.053,0-.05.119-.1.271-.117s.293-.056.3-.107.095-.066.2-.067a.661.661,0,0,1,.122.01.567.567,0,0,0,.071,0,.538.538,0,0,0,.392-.164.514.514,0,0,1,.226-.16.029.029,0,0,1,.014,0h0a10.038,10.038,0,0,0,.059-1.5,5.637,5.637,0,0,0-.1-1.514h0c-.05,0-.082-.06-.083-.13a7.642,7.642,0,0,0-.249-1.684h0c-.04,0-.085-.19-.11-.422a1.07,1.07,0,0,0-.112-.483,1.173,1.173,0,0,1-.1-.5,2.59,2.59,0,0,0-.248-1.208h0a.84.84,0,0,1-.04-.444.744.744,0,0,0-.114-.574.523.523,0,0,1-.11-.412c.017-.152-.006-.283-.046-.283h0c-.05,0-.075-.221-.071-.494.024-.324-.021-.535-.114-.614a.641.641,0,0,1-.111-.473c.016-.182-.008-.333-.058-.332h0c-.051,0-.075-.161-.058-.353s-.008-.354-.048-.353h0c-.05,0-.1-.15-.118-.321s-.068-.343-.119-.362-.065-.18-.048-.373-.008-.353-.048-.353h0c-.05,0-.1-.139-.108-.321s-.068-.343-.119-.352-.075-.19-.058-.383-.008-.353-.048-.353h0c-.05,0-.1-.119-.117-.27s-.057-.292-.107-.3-.075-.181-.059-.373a.655.655,0,0,0-.111-.473.3.3,0,0,1-.108-.271c.019-.061,0-.121-.052-.12h0c-.051,0-.084-.14-.057-.3s-.006-.3-.047-.3h0c-.051,0-.1-.1-.116-.23a1.823,1.823,0,0,0-.242-.875h0c-.03,0-.073-.1-.086-.23-.05-.444-.17-.876-.261-.875h0c-.05,0-.062-.069-.033-.151s.017-.151-.023-.151h0c-.051,0-.1-.139-.118-.321a.731.731,0,0,0-.109-.372.39.39,0,0,1-.107-.26,2.828,2.828,0,0,0-.422-1.225.147.147,0,0,1-.075-.191c.029-.081,0-.141-.062-.14h0c-.06,0-.082-.069-.053-.151s.007-.151-.063-.15h0c-.06,0-.081-.049-.052-.1s.008-.1-.052-.1h0c-.06,0-.081-.049-.052-.1a1.727,1.727,0,0,0-.507-1h0c-.06,0-.08-.029-.04-.06.079-.093-.332-.841-.464-.84h0c-.06,0-.081-.039-.041-.09.058-.122-.351-.81-.493-.809h0c-.05,0-.07-.039-.031-.09s-.024-.171-.117-.25-.135-.159-.115-.16a4.929,4.929,0,0,0-.365-.963,6.6,6.6,0,0,1-.421-1.2c0-.132-.035-.242-.076-.242h0c-.051,0-.088-.322-.1-.7s.015-.709.066-.71.068-.133.065-.294a5.019,5.019,0,0,1,.133-.893c.074-.325.136-.731.153-.893a.647.647,0,0,1,.114-.367.886.886,0,0,0,.091-.457.873.873,0,0,1,.082-.457.664.664,0,0,0,.094-.355.794.794,0,0,1,.073-.346,9.9,9.9,0,0,0,.167-2.663c-.053-.575-.047-.778.044-.78s.106-.275.07-1.012a4.292,4.292,0,0,1,.008-1.012,4.046,4.046,0,0,0,.2-1.5,1.2,1.2,0,0,1,.059-.527c.092,0,.2-.571.21-1.1,0-.232.042-.425.092-.426s.058-.143.034-.3-.016-.3.035-.305.059-.051.028-.1-.012-.1.058-.1.1-.133.064-.355c-.025-.192-.008-.364.032-.375a.73.73,0,0,0,.093-.406c.016-.213.063-.386.113-.387s.059-.112.036-.254-.016-.252.025-.253.089-.062.088-.143c0-.066.039-.1.126-.1a.56.56,0,0,1,.125.014.681.681,0,0,0,.1.006c.093,0,.156-.023.155-.062s.2-.085.455-.09h.029a.887.887,0,0,1,.428.052c0,.04.215.117.47.172a1.587,1.587,0,0,1,1.361,1.134,3.893,3.893,0,0,1,.245,1.037,2.594,2.594,0,0,1-.475,1.486,1.086,1.086,0,0,1-.777.269,1.647,1.647,0,0,1-.638-.117c-.225-.1-.39-.195-.36-.225s-.023-.142-.107-.261a1.306,1.306,0,0,1,.033-1.316c.132-.172.251-.258.355-.259.175,0,.308.238.4.719.034.2.092.534.127.725.056.279.107.35.294.348h.007c.284-.006.511-.254.416-.464-.032-.08-.014-.151.037-.152s.1-.276.088-.609-.053-.6-.114-.6h0c-.051,0-.072-.06-.043-.131s-.066-.221-.19-.34a1.506,1.506,0,0,0-1.012-.36,1.765,1.765,0,0,0-1.6,1.083,1.307,1.307,0,0,0-.014,1.264,1.346,1.346,0,0,1,.161.422.245.245,0,0,0,.156.2.254.254,0,0,1,.156.188.623.623,0,0,0,.21.3.383.383,0,0,0,.183.109c.014,0,.021-.007.021-.022s0-.017.01-.017.082.062.155.155a.391.391,0,0,0,.27.183.122.122,0,0,0,.038-.007.213.213,0,0,1,.081-.019c.037,0,.061.015.061.046,0,.13.494.3.867.295h.011a1.8,1.8,0,0,0,.676-.176c.41-.221.976-.769.9-.889-.031-.04.018-.112.108-.144a.167.167,0,0,0,.107-.2c-.032-.08-.023-.141.028-.142s.129-.114.187-.256a3.849,3.849,0,0,0-.03-1.871h0c-.05,0-.071-.049-.042-.1s.029-.1-.021-.1h0c-.041,0-.094-.129-.108-.3a2.193,2.193,0,0,0-.755-1.2.553.553,0,0,1-.27-.3.27.27,0,0,0-.216-.2h0c-.08,0-.121-.048-.092-.1s-.023-.131-.125-.159-.368-.134-.593-.23a4.99,4.99,0,0,0-1.354-.477h-.006a7.106,7.106,0,0,1-1.517-.443,4.75,4.75,0,0,0-1.753-.4,1.6,1.6,0,0,0-.755.173,2.065,2.065,0,0,1-.777.168c-.274.006-.961.091-1.527.174s-1.465.2-1.971.234l-.941.05-.014-.637c-.007-.353-.054-.635-.115-.634h0c-.051,0-.072-.06-.053-.131.076-.2-.33-.751-.689-.915a.987.987,0,0,0-.456-.109,1.444,1.444,0,0,0-.955.472,2.964,2.964,0,0,0-.6.8c-.2.443-.191.985,0,.983l.022,0a.1.1,0,0,1,.033-.006.085.085,0,0,1,.09.074.079.079,0,0,0,.086.075.124.124,0,0,0,.037-.006c.222-.046.449-.333.612-.782.155-.425.283-.623.444-.624.1,0,.205.069.337.2.332.327.367.569.145,1.059a1.373,1.373,0,0,1-1.2.768.936.936,0,0,1-.531-.145,1.943,1.943,0,0,1-.655-1.24c0-.162-.037-.3-.077-.3h0c-.05,0-.083-.11-.086-.251s.025-.253.076-.254.069-.083.067-.184a.739.739,0,0,1,.144-.367c.079-.1.117-.235.085-.275s-.012-.09.039-.092a6.527,6.527,0,0,0,1.136-1.409c0-.04.107-.164.237-.268s.218-.217.207-.257a1.6,1.6,0,0,1,.345-.463c.208-.216.346-.442.314-.492s-.012-.09.059-.092.1-.032.059-.062.027-.162.136-.286a.474.474,0,0,0,.144-.387c-.022-.1,0-.182.037-.183a3.765,3.765,0,0,0-.111-1.879c-.083-.079-.115-.139-.064-.14s-.012-.07-.115-.149-.165-.148-.125-.149c.173,0-.2-.32-.568-.5a2.083,2.083,0,0,0-.89-.169,2.053,2.053,0,0,0-.943.218,3,3,0,0,0-1.346,2.011c0,.242.317.638.519.636h0c.223,0,.586-.528.58-.832a.509.509,0,0,1,.094-.345c.06-.042.089-.093.068-.133-.095-.17.326-.381.832-.433a2.43,2.43,0,0,0,.586-.073l.01,0a.843.843,0,0,1,.288.179,1.465,1.465,0,0,1,.511,1.172,4.9,4.9,0,0,1-1.1,1.965c-.307.351-.663.763-.792.907a8.281,8.281,0,0,0-1.106,1.814,3.079,3.079,0,0,0,.1,2.313c.2.178.2.188.015.233a.388.388,0,0,1-.074.006,2.277,2.277,0,0,1-.475-.066,19.014,19.014,0,0,0-1.991-.241,6.4,6.4,0,0,1-1.77-.286.439.439,0,0,0-.3-.094.508.508,0,0,0-.11.012c-.141.033-.514.112-.817.179s-1.009.2-1.564.306a13.039,13.039,0,0,0-3.574,1.128,4.93,4.93,0,0,0-1.485,1.639.968.968,0,0,1-.164.418c-.147.216-.172.479-.151,1.47.024,1.142.047,1.232.3,1.611.323.462.7.814.858.812a.076.076,0,0,0,.041-.011.077.077,0,0,1,.041-.011c.045,0,.088.037.113.1.039.083.141.113.394.11.084,0,.186-.006.307-.013.738-.056,1.141-.2,1.227-.441.023-.074.073-.122.118-.122a.048.048,0,0,1,.031.008.066.066,0,0,0,.032.008c.208,0,.848-.882.954-1.334.12-.537.123-.86,0-.859h0c-.05,0-.072-.08-.044-.192a.391.391,0,0,0-.118-.331c-.083-.089-.126-.179-.1-.22s-.033-.091-.135-.129a.579.579,0,0,1-.267-.176,1.246,1.246,0,0,0-.542-.242,1.748,1.748,0,0,0-.446-.066,1.583,1.583,0,0,0-.456.086,1.064,1.064,0,0,0-.844.8c-.233.605.129,1.907.457,1.9a.15.15,0,0,0,.109-.054c.059-.062.068-.112.019-.112h0c-.049,0,0-.061.1-.143.13-.094.187-.267.181-.56,0-.223.042-.416.092-.417s.058-.133.035-.284c-.043-.26.053-.458.178-.459a.188.188,0,0,1,.138.078.268.268,0,0,0,.174.1.093.093,0,0,0,.041-.011.067.067,0,0,1,.038-.013c.031,0,.053.027.054.071a1.535,1.535,0,0,0,.182.472.741.741,0,0,1,.046.727,1.207,1.207,0,0,1-1.117.929,1.385,1.385,0,0,1-.681-.183c-.225-.117-.411-.244-.4-.275.008-.121-.163-.511-.224-.511h0a5.1,5.1,0,0,1-.024-1.617.606.606,0,0,0,.1-.255.645.645,0,0,1,.155-.337c.069-.082.1-.174.066-.224s.018-.132.1-.2a.273.273,0,0,1,.133-.082q.016,0,.018.018c0,.011.007.015.02.015a.573.573,0,0,0,.211-.1,2.046,2.046,0,0,1,.6-.215c.2-.045.373-.109.372-.149a1.558,1.558,0,0,1,.657-.085h.046c.343,0,.614.029.615.078,0,.025.027.041.066.041a.208.208,0,0,0,.086-.024.224.224,0,0,1,.072-.016c.047,0,.08.022.081.063s.1.074.245.072c.043,0,.091,0,.141-.009.033,0,.065,0,.1,0,.367,0,.638.174.643.444a.878.878,0,0,0,.11.372,47.631,47.631,0,0,1,1.248,6.254c.061.524.173,1.493.248,2.159s.218,1.653.31,2.187a12.775,12.775,0,0,1,.172,1.423,5.488,5.488,0,0,0,.238,1.188c.774,2.542.834,2.986.582,3.972a9.912,9.912,0,0,1-1.456,3.014,13.576,13.576,0,0,0-1.648,3.524c-.048.163-.19.621-.313,1.018s-.4,1.262-.577,1.934-.405,1.444-.48,1.719a3.457,3.457,0,0,0-.138.691.944.944,0,0,1-.1.4,2.763,2.763,0,0,0-.168.681c-.071.447-.136.762-.423,2-.066.275-.167.732-.232,1.017s-.156.782-.23,1.117-.193.914-.266,1.29c-.138.65-.239,1.138-.554,2.57-.257,1.229-.712,3.17-.9,3.862-.1.387-.235.895-.281,1.118a2.45,2.45,0,0,1-.191.53,1.317,1.317,0,0,0-.109.6c-.011.435.01.486.338.661a1.129,1.129,0,0,0,.433.139.115.115,0,0,0,.046-.008.2.2,0,0,1,.07-.015c.044,0,.073.021.073.063a.072.072,0,0,0,.083.07.159.159,0,0,0,.06-.013.194.194,0,0,1,.066-.013.124.124,0,0,1,.128.08,1.718,1.718,0,0,0,.913.3.2.2,0,0,0,.1-.018.051.051,0,0,1,.032-.013c.027,0,.049.028.05.072a.075.075,0,0,0,.083.077.156.156,0,0,0,.07-.02.179.179,0,0,1,.065-.013c.051,0,.088.024.088.061s.064.074.153.073a.4.4,0,0,0,.082-.008.468.468,0,0,1,.076-.006.434.434,0,0,1,.29.09.3.3,0,0,0,.214.1.18.18,0,0,0,.062-.011.258.258,0,0,1,.085-.02c.035,0,.057.013.057.037a3.565,3.565,0,0,0,1.457.333h.014c.2,0,.361.033.362.063,0,.1.582.2,1.149.208h.024a.915.915,0,0,1,.454.061,4.187,4.187,0,0,0,1.525.2h.031a1.412,1.412,0,0,1,.578.068,4.827,4.827,0,0,0,.985.081,2.935,2.935,0,0,1,.944.081,3.6,3.6,0,0,0,1.05.057l.208,0,.3,0c.718-.009.99.021,1.073.117a37.945,37.945,0,0,1,.2,5.063c.07,4.691.065,4.934-.115,5.049-1.46.91-1.645,1.784-.551,2.691.361.316.393.376.588,1.444a43.342,43.342,0,0,1,.2,8.1c-.074.345-.205.874-.269,1.179a17.833,17.833,0,0,0-.1,4.755,19.091,19.091,0,0,0,.284,1.905c.088.322.1.463.021.516a16.58,16.58,0,0,1-1.951.223,42.389,42.389,0,0,0-5.022.693c-2.361.515-4.309,1.325-5.043,2.089-.357.371-.376.422-.363,1.029a1.167,1.167,0,0,0,.387,1.054c.187.2.372.361.444.36a.034.034,0,0,0,.02-.006.07.07,0,0,1,.039-.013.056.056,0,0,1,.053.061,4.723,4.723,0,0,0,2.058,1.009c.1.007.194.036.194.066a2.853,2.853,0,0,0,1.2.356.2.2,0,0,0,.063-.008.206.206,0,0,1,.088-.023c.045,0,.074.021.075.06a.078.078,0,0,0,.085.075.133.133,0,0,0,.038-.007.113.113,0,0,1,.049-.01.358.358,0,0,1,.227.1.508.508,0,0,0,.342.1.775.775,0,0,0,.1-.007.785.785,0,0,1,.168-.021c.069,0,.115.011.116.035a3.162,3.162,0,0,0,1.2.244.245.245,0,0,0,.12-.019.172.172,0,0,1,.088-.026.122.122,0,0,1,.1.052,1.235,1.235,0,0,0,.651.128c.315.014.579.058.58.109,0,.033.089.047.22.046.069,0,.15-.006.237-.015a1.882,1.882,0,0,1,.24-.019c.132,0,.216.016.217.05s.177.066.468.062c.128,0,.278-.008.445-.021.118,0,.232-.008.335-.009.339,0,.577.012.578.05s.19.048.478.045c.168,0,.37-.011.586-.027s.418-.024.587-.026c.287,0,.477.012.478.044a6.12,6.12,0,0,0,1.286.053l.235,0a6.813,6.813,0,0,0,1.518-.113,2.5,2.5,0,0,1,.759-.06h.2c.106,0,.208,0,.3,0a1.6,1.6,0,0,0,.659-.072,2.676,2.676,0,0,1,.82-.07h.141c.105,0,.207,0,.3,0a1.587,1.587,0,0,0,.658-.072c0-.04.171-.084.383-.1a5.308,5.308,0,0,0,1.737-.3.044.044,0,0,1,.049-.048.146.146,0,0,1,.062.016.242.242,0,0,0,.112.017,2.856,2.856,0,0,0,1.189-.318c0-.025.022-.039.056-.039a.211.211,0,0,1,.075.016.152.152,0,0,0,.052,0,9.718,9.718,0,0,0,1.762-.478c.09-.033.17-.105.169-.156,0-.034.018-.055.046-.055a.091.091,0,0,1,.044.013.054.054,0,0,0,.031,0,8.354,8.354,0,0,0,2.008-.857C172.079,453.407,172.479,452.67,172.239,451.877Zm-26.518-82.74a.694.694,0,0,1-.194-.034l-.235-.076.252-.066a.706.706,0,0,1,.162-.021c.069,0,.12.011.132.035C145.882,369.078,145.834,369.135,145.721,369.137Zm8.045,1.379a1.782,1.782,0,0,1-.658.509h0a.813.813,0,0,1-.606-.452c-.023-.141.758-.562,1.052-.568a.515.515,0,0,0,.342-.149c.053-.056.088-.085.12-.085s.065.029.113.09C154.221,369.98,154.142,370.113,153.766,370.516Zm1.953,3.184-.282,0c-1.077.013-1.194,0-1.028-.128.109-.083.249-.2.308-.249a.251.251,0,0,1,.135-.057.074.074,0,0,1,.047.013.027.027,0,0,0,.02.008c.03,0,.068-.048.1-.122s.073-.122.113-.122a.043.043,0,0,1,.027.008.094.094,0,0,0,.048.013.128.128,0,0,0,.1-.067.3.3,0,0,1,.269-.107,1.409,1.409,0,0,1,.727.238,1.3,1.3,0,0,0,.446.215l.015,0a.039.039,0,0,1,.025-.008.47.47,0,0,1,.241.143C157.228,373.668,157.2,373.669,155.719,373.7Zm2.031-3.127a1.989,1.989,0,0,0-.372-.346h0a.754.754,0,0,1-.236-.177c-.135-.129-.157-.209-.077-.292a.147.147,0,0,1,.107-.047.432.432,0,0,1,.228.091.664.664,0,0,0,.337.094.392.392,0,0,0,.09-.012.471.471,0,0,1,.127-.021c.046,0,.076.009.076.026a1.759,1.759,0,0,0,.74.431h.009l.021,0h0c.1,0,.043.225-.115.409a.458.458,0,0,1-.348.183A.857.857,0,0,1,157.75,370.573Z" transform="translate(-141.003 -355.48)"/><path class="cls-3" d="M178.651,423.749V399.668h5.177v17.817h12.955l-3.326,6.264Z" transform="translate(-141.003 -355.48)"/><path class="cls-3" d="M221.266,411.69c0,8.423-3.953,12.455-12.255,12.455-8.279,0-12.2-4-12.2-12.455,0-8.422,3.9-12.418,12.2-12.418S221.266,403.268,221.266,411.69Zm-19.308,0c0,4.9,1.5,6.192,7.053,6.192,5.6,0,7.077-1.3,7.077-6.192s-1.45-6.155-7.077-6.155C203.434,405.535,201.958,406.831,201.958,411.69Z" transform="translate(-141.003 -355.48)"/><path class="cls-3" d="M247.8,411.69c0,8.423-3.952,12.455-12.255,12.455-8.278,0-12.2-4-12.2-12.455,0-8.422,3.9-12.418,12.2-12.418S247.8,403.268,247.8,411.69Zm-19.308,0c0,4.9,1.5,6.192,7.053,6.192,5.6,0,7.077-1.3,7.077-6.192s-1.45-6.155-7.077-6.155C229.965,405.535,228.489,406.831,228.489,411.69Z" transform="translate(-141.003 -355.48)"/><path class="cls-3" d="M273.6,423.749l-2.652-13.966L266.6,421.445c-.776,2.016-1.576,2.7-3.1,2.7-1.551,0-2.352-.684-3.1-2.7l-4.251-11.662-2.726,13.966h-5.252l4.352-21.129c.425-2.124,1.5-3.348,2.951-3.348,1.2,0,2.15.864,2.8,2.52l5.328,14.29,5.352-14.29c.625-1.656,1.6-2.52,2.8-2.52,1.426,0,2.551,1.3,2.951,3.348l4.251,21.129Z" transform="translate(-141.003 -355.48)"/><path class="cls-3" d="M296.657,423.749c-4.5,0-6.777-2.268-6.777-6.768a7.767,7.767,0,0,1,1.95-5.65,6.884,6.884,0,0,1-1.625-4.824c0-4.283,2.426-6.839,6.552-6.839h7l-3.352,6.263h-3.851a1.325,1.325,0,0,0-1.425,1.512c0,1.044.5,1.584,1.45,1.584h13.555l-2.876,5.291h-2.526v3.167h5.677l-3.326,6.264Zm3.852-9.431h-4.127c-.9,0-1.351.54-1.351,1.584s.45,1.583,1.351,1.583h4.127Z" transform="translate(-141.003 -355.48)"/><path class="cls-3" d="M321.762,423.749V399.668h5.177v17.817h12.955l-3.327,6.264Z" transform="translate(-141.003 -355.48)"/><path class="cls-3" d="M357.373,399.668h5.151v13.57c0,7.524-3.376,10.907-10.9,10.907-7.6,0-11.029-3.347-11.029-10.907v-13.57h5.177v13.57c0,3.42,1.525,4.644,5.852,4.644,4.276,0,5.752-1.224,5.752-4.644Z" transform="translate(-141.003 -355.48)"/><path class="cls-3" d="M388.582,399.668l-8.653,11.77,9.078,12.311h-7.2l-5.752-7.811-5.6,7.811h-6.727l9.1-12.166-8.778-11.915h7.2l5.452,7.379,5.227-7.379Z" transform="translate(-141.003 -355.48)"/><path class="cls-3" d="M396.057,409.027h13.229l-3,5.327H396.057v3.131h14.229l-3.3,6.264H390.879V399.668h19.383l-3.352,6.263H396.057Z" transform="translate(-141.003 -355.48)"/><path class="cls-1" d="M212.088,436.639H222.23v2.6h-6.689v3.171h5.712V445h-5.712v5.318h-3.453Z" transform="translate(-141.003 -355.48)"/><path class="cls-1" d="M225.107,447.434c0-2.334,2.152-3.523,7.638-3.822-.121-.931-.9-1.5-2.462-1.5a8.745,8.745,0,0,0-3.54.975l-1.228-2.024a11.991,11.991,0,0,1,5.433-1.409c3.266,0,5.243,1.523,5.243,4.714v5.954h-2.814l-.248-1.174h-.088a7.587,7.587,0,0,1-4.116,1.426C226.576,450.573,225.107,449.185,225.107,447.434Zm7.638-.248v-1.707c-3.416.154-4.334.818-4.334,1.708,0,.669.63,1,1.6,1A4.733,4.733,0,0,0,232.745,447.186Z" transform="translate(-141.003 -355.48)"/><path class="cls-1" d="M238.953,448.978l1.464-1.928a9.61,9.61,0,0,0,4.686,1.234c1.278,0,1.842-.38,1.842-.892,0-.58-.563-.793-2.841-1.224-3.16-.606-4.415-1.646-4.415-3.254,0-1.94,2.021-3.261,5.336-3.261a10.179,10.179,0,0,1,5.028,1.423l-1.544,1.856a8.113,8.113,0,0,0-3.8-1c-1.075,0-1.608.343-1.608.833,0,.579.712.714,2.681,1.11,3.583.72,4.58,1.635,4.58,3.331,0,1.886-2,3.362-5.731,3.362A11.685,11.685,0,0,1,238.953,448.978Z" transform="translate(-141.003 -355.48)"/><path class="cls-1" d="M253.442,435.614h3.446V439.2l-.2,2.005h.086a5.521,5.521,0,0,1,3.849-1.555c2.607,0,3.763,1.61,3.763,4.237v6.431h-3.446v-6.034c0-1.386-.445-2-1.7-2a3.371,3.371,0,0,0-2.348,1.084v6.951h-3.446Z" transform="translate(-141.003 -355.48)"/><path class="cls-1" d="M272.307,442.327h-4.676v-2.422h8.122v10.416h-3.446Zm-.722-5.937a2.323,2.323,0,0,1,4.576,0c0,1.136-.96,1.888-2.288,1.888S271.585,437.526,271.585,436.39Z" transform="translate(-141.003 -355.48)"/><path class="cls-1" d="M280.936,445.119c0-3.468,2.857-5.466,5.921-5.466s5.921,2,5.921,5.466-2.857,5.454-5.921,5.454S280.936,448.575,280.936,445.119Zm8.316,0c0-1.807-.81-2.972-2.395-2.972s-2.4,1.165-2.4,2.972.809,2.96,2.4,2.96S289.252,446.919,289.252,445.119Z" transform="translate(-141.003 -355.48)"/><path class="cls-1" d="M295.562,439.905h2.808l.248,1.389h.094a5.922,5.922,0,0,1,4.013-1.641c2.625,0,3.78,1.61,3.78,4.237v6.431H303.06v-6.034c0-1.386-.446-2-1.7-2a3.373,3.373,0,0,0-2.348,1.084v6.951h-3.446Z" transform="translate(-141.003 -355.48)"/><path class="cls-1" d="M323.135,448.6l1.981-2.127a6.969,6.969,0,0,0,4.055,1.427c1.465,0,2.141-.508,2.141-1.177,0-.986-.906-1.224-2.35-1.766l-1.986-.761c-1.691-.576-3.234-1.739-3.234-3.73,0-2.266,2.276-4.077,5.59-4.077a7.872,7.872,0,0,1,5.066,1.792l-1.739,1.951a5.883,5.883,0,0,0-3.515-1.068c-1.137,0-1.909.422-1.909,1.221,0,.823,1.023,1.124,2.486,1.616l1.866.71c2,.672,3.259,1.789,3.259,3.72,0,2.275-2.128,4.244-5.9,4.244A9.4,9.4,0,0,1,323.135,448.6Z" transform="translate(-141.003 -355.48)"/><path class="cls-1" d="M340.075,446.005v-3.678h-2.927v-2.3l3.081-.12.444-3.184h2.848v3.184h4.895v2.422h-4.895v3.638c0,1.584.746,2.181,2.44,2.181a7.542,7.542,0,0,0,2.293-.372l.624,2.236a14.056,14.056,0,0,1-3.795.563C341.388,450.573,340.075,448.736,340.075,446.005Z" transform="translate(-141.003 -355.48)"/><path class="cls-1" d="M351.137,445.119c0-3.468,2.857-5.466,5.922-5.466s5.92,2,5.92,5.466-2.857,5.454-5.92,5.454S351.137,448.575,351.137,445.119Zm8.316,0c0-1.807-.809-2.972-2.394-2.972s-2.4,1.165-2.4,2.972.81,2.96,2.4,2.96S359.453,446.919,359.453,445.119Z" transform="translate(-141.003 -355.48)"/><path class="cls-1" d="M366.777,439.905h2.831l.273,2.279h.08a5.522,5.522,0,0,1,4.708-2.531,5.251,5.251,0,0,1,2.23.42l-.7,2.6a6.648,6.648,0,0,0-2.055-.306,4.332,4.332,0,0,0-3.922,2.539v5.418h-3.447Z" transform="translate(-141.003 -355.48)"/><path class="cls-1" d="M379.4,445.107c0-3.408,2.931-5.454,6.041-5.454,3.581,0,5.467,2.168,5.467,5a8.1,8.1,0,0,1-.144,1.383h-8.81v-2.07h6.48l-.542.589c0-1.673-.81-2.551-2.336-2.551-1.7,0-2.818,1.033-2.818,3.1,0,2.162,1.312,3.111,3.569,3.111a6.964,6.964,0,0,0,2.992-.724l1.14,1.861a9.637,9.637,0,0,1-4.6,1.218C382.221,450.573,379.4,448.569,379.4,445.107Z" transform="translate(-141.003 -355.48)"/></svg>